<?xml version="1.0" encoding="utf-8"?>
<!-- Generator: Adobe Illustrator 22.0.1, SVG Export Plug-In . SVG Version: 6.00 Build 0)  -->
<svg version="1.1" id="Ebene_1" xmlns="http://www.w3.org/2000/svg" xmlns:xlink="http://www.w3.org/1999/xlink" x="0px" y="0px"
	 viewBox="0 0 2738.6 530" style="enable-background:new 0 0 2738.6 530;" xml:space="preserve">
<style type="text/css">
	.st0{fill:#00245D;}
</style>
<path id="Farbfüllung_1" class="st0" d="M719,288.3c-3.6-0.5-7.2-0.8-10.8-0.8c-8.8,0-14.8,2.2-18,6.5c-2.5,3.6-3.8,10.2-3.8,19.9
	v25h29.9v8.9h-29.9v127.3h-10.8V347.8H648v-8.9h27.7v-29.6c0-20.6,9.4-31,28.3-31c1.1,0,6.1,0.3,15.1,0.8L719,288.3L719,288.3z
	 M829.4,475.1h-9.7c-0.2-3.1-0.4-6.9-0.5-11.6c-0.2-4.7-0.4-10.1-0.8-16.4c-7.5,20.5-23.2,30.7-47.1,30.7c-12.7,0-23.2-2.8-31.5-8.4
	c-10-6.8-15.1-17.1-15.1-30.7c0-29.3,23.9-44.2,71.6-44.7h18c0.9-0.1,1.8,0,2.7,0.3v-10.2c0-25.5-12.2-38.2-36.6-38.2
	c-20.8,0-32.3,9.1-34.4,27.2h-10.5c0.4-12.2,5.1-21.5,14.3-27.7c7.7-5.6,17.9-8.3,30.7-8.3c12.9,0,23,2.3,30.4,7
	c10.9,7,16.6,20.7,16.9,41.2V417c0,0.7-0.1,1.4-0.3,2.1c-0.2,9.2-0.1,18.3,0.3,27.5S828.7,465.3,829.4,475.1z M817,412.7v-10
	l-15.1-0.3c-19.9,0-34.1,1.7-42.5,5.1c-16,5.7-24,16.1-23.9,31c0,10.2,3.8,18.1,11.3,23.7c6.6,4.8,15.2,7.3,25.8,7.3
	C802.2,469.5,817,450.6,817,412.7L817,412.7z M969.9,432.9c-1.1,13.1-6.1,23.9-15.1,32.3c-9.5,8.4-21.7,12.7-36.6,12.7
	c-19.6,0-34.9-6.6-46-19.9c-10.4-12.6-15.6-29-15.6-49.3c0-20.8,5.1-37.9,15.3-51.2c11.1-14.3,27-21.5,47.6-21.5
	c14.5,0,26.2,3.9,35.1,11.7s13.8,18.7,14.9,32.7H959c-1.1-11.3-5.1-20-12.1-26.1s-16.1-9.1-27.4-9.1c-17.4,0-30.7,6.3-39.8,18.8
	c-7.9,11.1-11.8,25.9-11.8,44.2c0,17.2,4.1,31.3,12.4,42.3c9.1,12.6,21.9,18.8,38.2,18.8c12.6,0,22.7-4.1,30.4-12.4
	c6.2-6.5,10-15,10.8-24H969.9L969.9,432.9z M1050.5,474.6c-2.9,0.4-5.7,0.6-8.5,0.8s-5.6,0.3-8.5,0.3c-16.7,0-25-9-25-26.9v-101H981
	v-8.9h27.4v-29.1l10.8-5.1v34.2h29.9v8.9h-29.9v95.3c0,7.7,1,13.4,3,17c2.7,4.3,8,6.5,15.9,6.5c2.2-0.1,4.3-0.3,6.5-0.7
	c2-0.4,3.9-0.6,5.9-0.7V474.6L1050.5,474.6z M1187,406c0,19.7-5.1,36.4-15.3,49.8c-11.3,14.7-26.5,22.1-45.5,22.1
	c-19.7,0-35.2-7.2-46.3-21.5c-10.1-13.3-15.1-30.1-15.1-50.3c0-19.7,5.1-36,15.3-48.7c10.9-13.6,26.3-20.5,46-20.5
	c19.9,0,35.2,6.7,46,20.2C1182.1,369,1187,385.3,1187,406z M1175.7,406.2c0-16.9-3.9-30.9-11.8-42c-9-12.2-21.5-18.3-37.7-18.3
	c-16.1,0-28.8,6.1-37.9,18.3c-8.1,11.1-12.1,25.1-12.1,42c0,17.2,4,31.6,12.1,43.1c9,13.3,21.6,19.9,37.9,19.9
	c15.8,0,28.2-6.6,37.4-19.9C1171.7,437.5,1175.7,423.1,1175.7,406.2L1175.7,406.2z M1278.5,349.7c-2-0.7-5.6-1.1-11-1.1
	c-20.3,0-32.6,10.1-37.1,30.2c-1.1,4.7-1.6,11-1.6,19.1v77.3H1218V361.5c0.1-1,0-2-0.3-3c-0.3-1.1-0.3-2.3-0.3-3.5v-16.2h10.5
	l0.5,26.6c9.9-18.3,23.9-27.5,42.2-27.5c1.6,0,3.1,0.1,4.4,0.1c1.1,0.1,2.2,0.2,3.4,0.4v11.3H1278.5z M1317.9,298.3h-12.4v-17.8
	h12.4V298.3L1317.9,298.3z M1317.1,475.1h-10.8V338.9h10.8V475.1L1317.1,475.1z M1459.5,475.1h-10.8v-78.3c0-16-2-27.6-5.9-34.7
	c-5.6-9.9-15.7-14.8-30.4-14.8c-23.7,0-38,12.7-43.1,38.2c-1.2,6.2-1.7,12.5-1.6,18.9v70.8H1357V378c0-8.3,0-15.6-0.1-22.1
	s-0.2-12.1-0.4-17h10.5v5.1c0,2.5,0.1,5.9,0.3,10.2c0.2,4.3,0.3,7.7,0.3,10.2v5.1c8.4-21.4,23.7-32,45.7-32
	c30.9,0,46.3,17.6,46.3,52.8L1459.5,475.1L1459.5,475.1z M1606.5,338.9c-0.4,7.5-0.6,14.9-0.8,21.9c-0.2,7.1-0.3,14.1-0.3,21.1v77.8
	c0,46.3-18.7,69.5-56.2,69.5c-13.6,0-24.9-2.6-33.9-7.8c-10.9-6.5-16.4-16.7-16.4-30.7h10.8c0,10.4,4,18.1,12.1,23.2
	c6.6,4.3,15.6,6.5,26.9,6.5c30.7,0,46-20.2,46-60.6V442c-8.4,21.9-23.9,32.8-46.5,32.8c-18.5,0-32.9-6.6-43.3-19.7
	c-9.7-12.4-14.5-28.4-14.5-48.2c0-19.7,4.6-36,13.7-48.7c10.2-14.2,24.5-21.3,42.8-21.3c10.9-0.2,21.5,3.2,30.3,9.6
	c8.7,6.4,14.8,15.2,18.2,26.5v-34.2L1606.5,338.9L1606.5,338.9z M1595.2,405.2c0-16-3.8-29.4-11.5-40.4
	c-8.8-12.6-20.4-18.8-34.9-18.8c-15.7,0-27.7,6.5-35.9,19.4c-7.2,11-10.7,25-10.7,42c0,16.5,3.8,30,11.5,40.4
	c8.6,12.4,20.5,18.6,35.7,18.6c15.7,0,27.6-6.5,35.7-19.4C1591.8,435.7,1595.2,421.8,1595.2,405.2L1595.2,405.2z M300.2,474.6v0.6
	h8.8v-0.6c0-50.1,40.6-90.6,90.7-90.7h72.7v-8.8h-72.7C344.7,375.1,300.2,419.6,300.2,474.6z M472.3,99.1v-8.8H448
	c6.6-28.6,9.9-57.9,9.8-87.2V2.4h-19.7v0.7c0,29.4-3.5,58.7-10.5,87.2h-28.2c-16.9,0-33.9,1.1-50.7,3.4
	c9.4-29.1,14.2-59.6,14.2-90.2V2.4h-19.7v1.1c0,32-5.6,63.7-16.5,93.7c-38.3,7.4-75.3,20.6-109.6,39.2C249.9,99.9,268,52.6,268,3.5
	V2.4h-19.7v1.1c0,99.1-80.5,179.6-179.5,179.6H0v19.7h69c25.6,0,51-5,74.8-14.6c-29.1,26-54,56.3-74.1,89.8c-0.3,0-0.5,0-0.8,0H0
	v19.7h58.7c-12.5,24-22.3,49.2-29.5,75.2H0v19.7h24.4c-5.8,26.9-8.8,54.3-8.8,81.8v0.7h8.8v-0.7c0-27.5,3-54.9,9-81.8h35.1
	c18.3,0,36.6-1.3,54.8-3.9c-8.5,27.6-12.9,56.3-12.8,85.2v1.1h8.8v-1.1c0-29.5,4.7-58.7,13.8-86.7c42.4-7.1,83.4-21.2,121.1-41.8
	c-31.5,35.4-48.9,81.1-48.9,128.5v1.1h8.8v-1c0-102.1,83-185.1,185-185.1h73.2v-8.8h-73.2c-24.6,0-49,4.7-71.9,13.9
	c32.2-28.7,59.4-62.5,80.6-100h64.5v-8.8h-59.7c14.5-27.3,25.7-56.2,33.3-86.1H472.3L472.3,99.1z M323.1,107
	c-39.6,97-133,166.4-242.9,170.8C133.5,191.5,220.7,128.3,323.1,107z M68.5,373H38.4c7.3-26.1,17.5-51.3,30.3-75.2H69
	c44.1,0.1,87.7-9.9,127.4-29.1c-28.4,28.1-50.7,61.8-65.5,98.9C110.3,371.2,89.4,373,68.5,373z M141.1,365.8
	c40.6-96.6,134-165.9,243.8-171.4C332,281.6,244.2,345.2,141.1,365.8L141.1,365.8z M390,185.5c-39.9,1.2-79.2,10.7-115.2,28
	c31.6-31,55.9-68.8,70.9-110.4c17.8-2.6,35.8-3.9,53.8-3.9h26C417.4,129.3,405.5,158.3,390,185.5z M173.4,3.2V2.4h-19.7v0.8
	c0,47-38.1,85-85,85.1H0V108h68.6C126.5,107.9,173.3,61,173.4,3.2z M779.5,100.4c0-36.6-26.9-40.6-62.9-40.6
	c-19.1,0-51.1,5.9-51.1,29.3c0,11.6,6.7,14.5,14.8,14.5c30.1,0,0.3-35.8,36.8-35.8c19.6,0,23.7,8.9,23.7,21.3v16.7
	c-7,3-20.7,6.7-26.9,8.1c-32.8,6.5-57.6,9.2-57.6,41.4c0,26.1,14,42.8,41.2,42.8c17.2,0,37.7-4,43.6-21h0.5
	c2.7,15.9,10.8,19.4,26.9,19.4c10,0,20.2-0.8,30.1-1.6v-8.1c-16.4,0-19.1-5.4-19.1-22.6V100.4L779.5,100.4L779.5,100.4z M740.8,137
	c0,15.6-0.3,48.2-25.8,48.2c-15.1,0-19.9-12.1-19.9-25.8c0-24.2,8.1-32,22.6-37.1l23.1-8.3L740.8,137L740.8,137L740.8,137z
	 M810.2,194.9h77.5v-8.1h-19.4v-55.4h12.4l37.4,55.4h-17.8v8.1h76.1v-8.1h-12.9L907,103.1l19.6-32h22.6V63h-54.9v8.1h21l-31.2,52.2
	h-15.9V0.9c-13.7,1.1-27.7,1.6-41.4,1.6h-16.7v8.1h19.4v176.3h-19.4v8H810.2z M991.1,194.9h80.4v-8.1h-22.3V71.1h22.3V63h-22.3V27.5
	c0-10.2,1.4-20.2,13.2-20.2c11.6,0,11.6,11.8,11.6,22.6c0,9.7,3.5,17.2,17.2,17.2c10.5,0,16.7-5.7,16.7-18.8
	c0-24.5-31.2-29.1-43.6-29.1c-38.7,0-53.8,18.6-53.8,47.4V63h-19.4v8.1h19.4v115.7h-19.4L991.1,194.9L991.1,194.9L991.1,194.9z"/>
</svg>
